<?xml version="1.0" standalone="no"?><!DOCTYPE svg PUBLIC "-//W3C//DTD SVG 1.1//EN" "http://www.w3.org/Graphics/SVG/1.1/DTD/svg11.dtd"><svg t="1550330909947" class="icon" style="" viewBox="0 0 1180 1024" version="1.1" xmlns="http://www.w3.org/2000/svg" p-id="3330" xmlns:xlink="http://www.w3.org/1999/xlink" width="230.46875" height="200"><defs><style type="text/css"></style></defs><path d="M885.833069 383.944645h-32.917976v-122.076979c0-146.876171-109.234539-261.867666-264.229494-261.867666-155.733026 0-261.867666 117.500937-261.867666 261.867666v122.076979h-32.917976c-72.478593 0-131.52429 57.42194-131.52429 127.981548V896.018452c0 70.559608 59.045697 127.981548 131.52429 127.981548h591.933112c72.478593 0 131.52429-57.42194 131.52429-127.981548V512.073807c0-70.707222-59.045697-128.129162-131.52429-128.129162z m-493.326798-122.076979c0-109.086925 76.611792-197.803085 196.179328-197.803085 118.239008 0 198.541156 86.944789 198.541156 197.803085v122.076979H392.506271v-122.076979zM951.521407 896.018452c0 35.279804-29.522848 64.064581-65.688338 64.064581h-591.933112c-36.313104 0-65.835952-28.637163-65.835952-64.064581V512.073807c0-35.279804 29.522848-64.064581 65.835952-64.064581h591.933112c36.313104 0 65.688338 28.637163 65.688338 64.064581V896.018452z m-361.654894-320.027678c-36.313104 0-65.688338 28.637163-65.688338 64.064581 0 23.618279 13.285282 44.284273 32.917976 55.355341V800.069194c0 17.713709 14.761424 31.884676 32.917976 31.884677S622.932103 817.635289 622.932103 800.069194v-104.510883c19.632694-11.071068 32.917976-31.737062 32.917976-55.355341-0.147614-35.575032-29.670463-64.212195-65.983566-64.212196z m0 0" p-id="3331" fill="#ffffff"></path></svg>