<?xml version="1.0" standalone="no"?><!DOCTYPE svg PUBLIC "-//W3C//DTD SVG 1.1//EN" "http://www.w3.org/Graphics/SVG/1.1/DTD/svg11.dtd"><svg t="1550330875824" class="icon" style="" viewBox="0 0 1024 1024" version="1.1" xmlns="http://www.w3.org/2000/svg" p-id="2577" xmlns:xlink="http://www.w3.org/1999/xlink" width="200" height="200"><defs><style type="text/css"></style></defs><path d="M498.512824 799.11823c-26.208918 0-47.529503 21.319561-47.529503 47.530526 0 26.206872 21.321608 47.529503 47.529503 47.529503 26.208918 0 47.53155-21.320585 47.53155-47.529503 0-26.210965-21.322631-47.530526-47.53155-47.530526z" p-id="2578"></path><path d="M733.666542 50.978045H263.361153c-39.564088 0-71.752184 32.18912-71.752184 71.754231v789.270954c0 39.565111 32.188096 71.753207 71.752184 71.753207h470.303342c39.564088 0 71.752184-32.187073 71.752184-71.753207V122.731252c0.002047-39.564088-32.18605-71.753207-71.750137-71.753207zM250.572896 82.084507h495.879857c13.906731 0 25.219381 11.314697 25.219381 25.219381v623.475907H225.355561V107.302865c0-13.905708 11.313673-25.218358 25.217335-25.218358zM746.4548 951.897845H250.572896c-13.904685 0-25.219381-12.028964-25.219382-26.816762V761.358231h546.317597V925.082106c0.002047 14.787798-11.310603 26.815739-25.216311 26.815739z" p-id="2579"></path></svg>